<svg width="16" height="12" viewBox="0 0 16 12" fill="none" xmlns="http://www.w3.org/2000/svg">
<path d="M2.97432 9.23077H1.12816C1.00576 9.23077 0.888363 9.2794 0.801807 9.36595C0.715252 9.45251 0.666626 9.5699 0.666626 9.69231L0.666626 11.5385C0.666626 11.6609 0.715252 11.7783 0.801807 11.8648C0.888363 11.9514 1.00576 12 1.12816 12H2.97432C3.09673 12 3.21412 11.9514 3.30068 11.8648C3.38723 11.7783 3.43586 11.6609 3.43586 11.5385V9.69231C3.43586 9.5699 3.38723 9.45251 3.30068 9.36595C3.21412 9.2794 3.09673 9.23077 2.97432 9.23077ZM2.97432 0H1.12816C1.00576 0 0.888363 0.0486262 0.801807 0.135181C0.715252 0.221737 0.666626 0.339131 0.666626 0.461538L0.666626 2.30769C0.666626 2.4301 0.715252 2.54749 0.801807 2.63405C0.888363 2.7206 1.00576 2.76923 1.12816 2.76923H2.97432C3.09673 2.76923 3.21412 2.7206 3.30068 2.63405C3.38723 2.54749 3.43586 2.4301 3.43586 2.30769V0.461538C3.43586 0.339131 3.38723 0.221737 3.30068 0.135181C3.21412 0.0486262 3.09673 0 2.97432 0ZM2.97432 4.61538H1.12816C1.00576 4.61538 0.888363 4.66401 0.801807 4.75057C0.715252 4.83712 0.666626 4.95452 0.666626 5.07692L0.666626 6.92308C0.666626 7.04548 0.715252 7.16288 0.801807 7.24943C0.888363 7.33599 1.00576 7.38462 1.12816 7.38462H2.97432C3.09673 7.38462 3.21412 7.33599 3.30068 7.24943C3.38723 7.16288 3.43586 7.04548 3.43586 6.92308V5.07692C3.43586 4.95452 3.38723 4.83712 3.30068 4.75057C3.21412 4.66401 3.09673 4.61538 2.97432 4.61538ZM14.9743 9.69231H5.74355C5.62114 9.69231 5.50375 9.74093 5.41719 9.82749C5.33064 9.91404 5.28201 10.0314 5.28201 10.1538V11.0769C5.28201 11.1993 5.33064 11.3167 5.41719 11.4033C5.50375 11.4898 5.62114 11.5385 5.74355 11.5385H14.9743C15.0967 11.5385 15.2141 11.4898 15.3007 11.4033C15.3872 11.3167 15.4359 11.1993 15.4359 11.0769V10.1538C15.4359 10.0314 15.3872 9.91404 15.3007 9.82749C15.2141 9.74093 15.0967 9.69231 14.9743 9.69231ZM14.9743 0.461538H5.74355C5.62114 0.461538 5.50375 0.510165 5.41719 0.59672C5.33064 0.683275 5.28201 0.800669 5.28201 0.923077V1.84615C5.28201 1.96856 5.33064 2.08596 5.41719 2.17251C5.50375 2.25907 5.62114 2.30769 5.74355 2.30769H14.9743C15.0967 2.30769 15.2141 2.25907 15.3007 2.17251C15.3872 2.08596 15.4359 1.96856 15.4359 1.84615V0.923077C15.4359 0.800669 15.3872 0.683275 15.3007 0.59672C15.2141 0.510165 15.0967 0.461538 14.9743 0.461538ZM14.9743 5.07692H5.74355C5.62114 5.07692 5.50375 5.12555 5.41719 5.2121C5.33064 5.29866 5.28201 5.41605 5.28201 5.53846V6.46154C5.28201 6.58395 5.33064 6.70134 5.41719 6.7879C5.50375 6.87445 5.62114 6.92308 5.74355 6.92308H14.9743C15.0967 6.92308 15.2141 6.87445 15.3007 6.7879C15.3872 6.70134 15.4359 6.58395 15.4359 6.46154V5.53846C15.4359 5.41605 15.3872 5.29866 15.3007 5.2121C15.2141 5.12555 15.0967 5.07692 14.9743 5.07692Z" fill="#A8A8A8"/>
</svg>
