<svg width="13" height="15" viewBox="0 0 13 15" fill="none" xmlns="http://www.w3.org/2000/svg">
<path d="M3.37304 14.625H9.55823C10.3647 14.625 10.8525 14.1762 10.885 13.3698L11.3013 3.86758H12.2769C12.5436 3.86758 12.7581 3.63995 12.7581 3.37329C12.7581 3.10663 12.5436 2.88549 12.2769 2.88549H9.31108V1.90991C9.31108 0.973359 8.6802 0.375 7.67861 0.375H5.24616C4.24455 0.375 3.62018 0.973359 3.62018 1.90991V2.88549H0.647916C0.387758 2.88549 0.166626 3.11313 0.166626 3.37329C0.166626 3.63995 0.387758 3.86758 0.647916 3.86758H1.63651L2.05276 13.3698C2.08527 14.1762 2.56656 14.625 3.37304 14.625ZM4.6608 2.88549V1.97495C4.6608 1.60423 4.92747 1.34408 5.3242 1.34408H7.60707C8.0038 1.34408 8.27697 1.60423 8.27697 1.97495V2.88549H4.6608ZM3.75026 12.3551L3.45759 5.26591C3.44459 4.99276 3.6397 4.79114 3.88685 4.79114C4.11449 4.79114 4.3096 5.00576 4.32261 5.26591L4.58926 12.3551C4.59578 12.6218 4.41366 12.8364 4.16001 12.8364C3.92587 12.8364 3.75677 12.6413 3.75026 12.3551ZM6.02662 12.3551L6.02012 5.26591C6.02012 5.00576 6.22824 4.79114 6.46238 4.79114C6.70303 4.79114 6.91116 5.00576 6.91116 5.26591V12.3551C6.91116 12.6218 6.69652 12.8364 6.46238 12.8364C6.22824 12.8364 6.02662 12.6218 6.02662 12.3551ZM8.34851 12.3551L8.61516 5.26591C8.62168 5.00576 8.81679 4.79114 9.05092 4.79114C9.29158 4.79114 9.48669 4.99276 9.48019 5.26591L9.18751 12.3551C9.18101 12.6413 9.0054 12.8364 8.76476 12.8364C8.51761 12.8364 8.34201 12.6218 8.34851 12.3551Z" fill="#ffffff"/>
</svg>
